<?xml version="1.0" standalone="no"?>
<!DOCTYPE svg PUBLIC "-//W3C//DTD SVG 20010904//EN"
 "http://www.w3.org/TR/2001/REC-SVG-20010904/DTD/svg10.dtd">
<svg version="1.0" xmlns="http://www.w3.org/2000/svg"
 width="382.000000pt" height="382.000000pt" viewBox="0 0 382.000000 382.000000"
 preserveAspectRatio="xMidYMid meet">
<metadata>
Created by potrace 1.14, written by Peter Selinger 2001-2017
</metadata>
<g transform="translate(0.000000,382.000000) scale(0.100000,-0.100000)"
fill="#000000" stroke="none">
<path d="M1788 3575 c-2 -1 -39 -6 -83 -9 -269 -23 -454 -74 -705 -194 -86
-41 -237 -127 -250 -141 -3 -3 -27 -24 -55 -46 -54 -44 -180 -169 -233 -231
-90 -106 -202 -302 -251 -434 -92 -255 -100 -432 -29 -645 74 -222 211 -352
453 -428 93 -29 311 -75 373 -79 47 -2 68 -18 58 -44 -10 -25 -53 -221 -66
-301 -6 -39 -13 -77 -14 -85 -3 -13 -14 -91 -21 -143 -14 -101 -17 -237 -6
-283 43 -176 274 -281 706 -321 113 -11 454 -6 555 8 335 44 548 148 595 292
22 64 22 175 0 338 -9 69 -18 127 -20 131 -2 3 -6 26 -9 50 -6 42 -11 68 -20
115 -35 164 -47 218 -51 225 -3 5 0 12 7 17 14 8 20 9 83 17 139 18 316 59
412 95 203 79 325 210 394 426 65 200 34 467 -82 710 -78 164 -241 383 -383
512 -148 135 -322 239 -561 334 -92 36 -338 92 -460 104 -67 7 -332 15 -337
10z"/>
</g>
</svg>
